<?xml version="1.0" encoding="UTF-8" standalone="no"?>
<svg
   xmlns:dc="http://purl.org/dc/elements/1.1/"
   xmlns:cc="http://creativecommons.org/ns#"
   xmlns:rdf="http://www.w3.org/1999/02/22-rdf-syntax-ns#"
   xmlns:svg="http://www.w3.org/2000/svg"
   xmlns="http://www.w3.org/2000/svg"
   version="1.1"
   id="svg2"
   viewBox="0 0 512 512">
  <metadata
     id="metadata12">
    <rdf:RDF>
      <cc:Work
         rdf:about="">
        <dc:format>image/svg+xml</dc:format>
        <dc:type
           rdf:resource="http://purl.org/dc/dcmitype/StillImage" />
        <dc:title></dc:title>
      </cc:Work>
    </rdf:RDF>
  </metadata>
  <defs
     id="defs10" />
  <path
     d="m 134.86523,113.45703 0,0.004 c -7.463,0.026 -15.13486,2.97611 -22.38085,8.66211 -9.65801,7.582 -18.054255,20.01522 -22.156255,35.32422 -4.102,15.31 -3.046656,30.27392 1.527344,41.66992 4.575,11.396 12.238151,18.95878 21.910151,21.55078 9.67001,2.59 20.09001,-0.12699 29.75,-7.70899 9.658,-7.583 18.05425,-20.01521 22.15626,-35.32421 4.102,-15.31 3.04665,-30.27393 -1.52735,-41.66993 -4.575,-11.396 -12.24016,-18.96078 -21.91015,-21.55078 -2.41801,-0.65 -4.88115,-0.96603 -7.36915,-0.95703 z m 242.27149,0 -0.002,0.004 c -2.488,-0.01 -4.95315,0.30512 -7.36915,0.95312 -9.672,2.59 -17.33715,10.15578 -21.91015,21.55078 -4.576,11.397 -5.63035,26.36193 -1.52735,41.66993 4.102,15.31 12.49726,27.74221 22.15626,35.32421 9.66,7.58 20.07999,10.29608 29.75,7.70508 9.67,-2.59 17.3381,-10.15183 21.9121,-21.54883 4.575,-11.395 5.62544,-26.35992 1.52344,-41.66992 -4.102,-15.308 -12.49529,-27.74122 -22.1543,-35.32422 -7.245,-5.686 -14.9169,-8.63806 -22.3789,-8.66406 z M 88.386719,226.03906 c -10.146,2.133 -18.060313,6.47744 -24.820313,12.64844 -9.882,9.023 -17.313297,22.55417 -23.029297,39.70117 -10.6,31.8 -15.0445,75.34335 -22.0625,120.15235 l 132.496091,0 c -0.04,-44.9 -0.51368,-88.9233 -6.80468,-121.2793 -3.203,-16.47 -7.96966,-29.78731 -14.09766,-38.57031 -6.872,1.342 -13.96789,1.24023 -20.96289,-0.63477 -8.012,-2.147 -14.980751,-6.37567 -20.718751,-12.01367 l 0,-0.004 z m 335.226561,0 c -5.74,5.64 -12.70575,9.86863 -20.71875,12.01563 -6.994,1.874 -14.08898,1.97872 -20.95898,0.63672 -6.127,8.785 -10.89961,22.10031 -14.09961,38.57031 -6.292,32.356 -6.76669,76.3793 -6.80469,121.2793 l 132.49219,0 c -7.017,-44.808 -11.46055,-88.35235 -22.06055,-120.15235 -5.714,-17.146 -13.1463,-30.67717 -23.0293,-39.70117 -6.758,-6.17 -14.67231,-10.51253 -24.82031,-12.64453 l 0,-0.004 z m -240.61523,69.5 0,23 18.00195,0 0,-23 -18.00195,0 z m 80.00195,0 0,23 18.00195,0 0,-23 -18.00195,0 z m -94.85742,41 c 0.18,4.613 0.31378,9.292 0.42578,14 l 174.86328,0 c 0.112,-4.708 0.24873,-9.387 0.42774,-14 l -175.7168,0 z"
     style="line-height:normal;text-indent:0;text-align:start;text-decoration-line:none;text-decoration-style:solid;text-decoration-color:#000000;text-transform:none;block-progression:tb;white-space:normal;isolation:auto;mix-blend-mode:normal;solid-color:#000000;solid-opacity:1"
     id="path6" />
</svg>
