<?xml version="1.0" encoding="UTF-8" standalone="no"?>
<svg
   xmlns:dc="http://purl.org/dc/elements/1.1/"
   xmlns:cc="http://creativecommons.org/ns#"
   xmlns:rdf="http://www.w3.org/1999/02/22-rdf-syntax-ns#"
   xmlns:svg="http://www.w3.org/2000/svg"
   xmlns="http://www.w3.org/2000/svg"
   version="1.1"
   id="svg2"
   viewBox="0 0 512 512">
  <metadata
     id="metadata12">
    <rdf:RDF>
      <cc:Work
         rdf:about="">
        <dc:format>image/svg+xml</dc:format>
        <dc:type
           rdf:resource="http://purl.org/dc/dcmitype/StillImage" />
        <dc:title></dc:title>
      </cc:Work>
    </rdf:RDF>
  </metadata>
  <defs
     id="defs10" />
  <path
     d="m 378.9707,73.371094 -0.002,0.0039 c 4.583,13.686 11.1,26.1345 17,37.9375 2.26,4.393 4.36655,8.9235 6.31055,13.5625 0.752,-0.016 1.66,-0.1123 2.75,-0.2793 1.98,-0.306 4.29475,-1.0007 6.71875,-1.9707 3.418,5.477 6.5117,10.94825 9.3457,16.40625 -3.976,1.786 -8.09725,3.139 -12.28125,3.875 2.563,8.39 4.5728,17.10125 5.9668,26.03125 1.474,0.658 3.4042,1.1202 6.0332,1.4082 3.742,0.41 8.41125,0.11855 13.28125,-0.81445 2.026,6.063 3.6915,12.1047 5.0625,18.0957 -6.837,1.487 -13.762,2.0355 -20.375,1.3125 -0.656,-0.072 -1.3078,-0.145 -1.9668,-0.25 0.517,10.124 0.2348,20.0925 -0.7832,29.8125 1.75,2.45 4.7457,4.43 9.3457,6.25 4.967,1.965 11.46225,3.14025 18.40625,3.40625 -0.006,6.316 -0.36929,12.56071 -1.02929,18.72071 -8.52,-0.32 -16.808,-1.808 -24.25,-4.75 -1.994,-0.79 -3.93446,-1.74046 -5.81446,-2.81446 -1.895,8.575 -4.38325,16.89 -7.40625,24.875 0.715,4.72 3.795,8.91125 9.5,13.28125 4.904,3.753 11.60521,7.02955 19.03321,9.43555 -2.044,5.94 -4.405,11.74845 -7,17.43945 -8.598,-2.875 -16.624,-6.86325 -23.375,-12.03125 -2.804,-2.148 -5.3995,-4.5922 -7.6875,-7.2832 -4.01,7.422 -8.52,14.444 -13.5,21 -0.76,5.682 1.4307,11.5027 6.4707,18.0957 4.168,5.457 10.3128,10.8695 17.4668,15.5625 -3.697,5.085 -7.63,9.9665 -11.75,14.6875 -7.99,-5.396 -15.0865,-11.74025 -20.5625,-18.90625 -2.838,-3.715 -5.234,-7.77845 -7,-12.06445 -6.71,6.478 -13.97671,12.23745 -21.72071,17.18945 -3.547,6.233 -3.17904,13.56355 0.62696,22.81055 2.985,7.25 8.2882,15.0377 14.9082,22.2207 -5.095,3.795 -10.3325,7.335 -15.6875,10.625 -7.003,-7.922 -12.754,-16.6177 -16.5,-25.7207 -2.513,-6.106 -4.0477,-12.6228 -4.2207,-19.0918 -7.497,3.064 -15.3123,5.418 -23.4043,7 -3.873,5.28 -4.96125,12.3245 -3.78125,21.4375 1.327,10.264 6.0798,22.3295 12.9668,33.4375 -13.974,5.168 -28.29155,8.5875 -42.56055,9.9375 l 1.75,18.625 c 17.84,-1.687 35.54575,-6.11625 52.59375,-12.90625 7.25,8.028 15.3573,14.5443 23.0293,18.2793 6.056,2.947 11.4087,4.33025 16.3457,3.90625 13.2,-5.517 25.6838,-12.3025 37.3418,-20.1875 -13.896,-3.52 -27.56325,-11.29245 -39.53125,-21.18945 5.442,-3.504 10.74025,-7.29425 15.90625,-11.28125 10.18,7.604 21.4565,13.126 31.0625,15 6.056,1.182 11.08975,1.185 15.34375,-0.25 13.212,-11.788 24.92,-25.1713 34.875,-39.7793 -14.705,0.925 -30.52475,-3.035 -45.09375,-9.75 4.12,-4.913 8.06529,-9.99 11.77929,-15.25 11.295,4.61 23.13746,6.9858 32.43946,6.3418 6.368,-0.44 11.16579,-1.85225 14.71679,-4.65625 7.183,-14.036 12.86675,-28.91725 16.84375,-44.40625 -0.335,0.123 -0.663,0.26 -1,0.375 -12.355,4.247 -26.62275,4.723 -40.59375,2.625 2.536,-5.87 4.81446,-11.878 6.81446,-18 10.236,1.027 20.2895,0.2305 27.6875,-2.3125 5.765,-1.98 9.64879,-4.4555 11.96679,-7.9375 1.965,-14.946 2.37246,-30.3163 1.06446,-45.9043 -0.043,0.028 -0.082,0.0648 -0.125,0.0937 -8.97,5.908 -19.969,9.48325 -31.375,11.15625 0.563,-6.302 0.85454,-12.687 0.81054,-19.125 7.92,-1.582 15.21125,-4.3182 20.28125,-7.6582 3.593,-2.366 5.94621,-4.60325 7.28321,-7.03125 -2.934,-15.234 -7.47021,-29.85325 -13.40821,-43.65625 -5.347,5.57 -12.1335,9.9617 -19.5625,13.3457 -1.427,-6.078 -3.1615,-12.1662 -5.1875,-18.2832 4.805,-2.513 8.94175,-5.4635 11.59375,-8.3125 2.212,-2.376 3.4015,-4.1493 3.8125,-5.7793 -5.97,-10.774 -12.81345,-20.9557 -20.43945,-30.4707 -2.642,3.796 -5.9298,7.1807 -9.5918,10.2207 -2.905,-5.553 -6.047,-11.09095 -9.5,-16.62695 2.208,-2.166 3.9518,-4.35946 4.9668,-6.18946 0.538,-0.97 0.92025,-1.65675 1.15625,-2.21875 -2.106,-2.193 -4.2738,-4.334496 -6.4668,-6.437496 -16.893,-12.396 -30.603,-18.6 -48.125,-24.25 z M 134.59375,73.375 c -17.522,5.65 -31.232,11.854 -48.125,24.25 -2.19,2.097 -4.336453,4.22025 -6.439453,6.40625 0.24,0.566 0.60925,1.265 1.15625,2.25 1.016,1.832 2.767703,4.02245 4.970703,6.18945 -3.454,5.536 -6.596,11.073 -9.5,16.625 -3.664,-3.04 -6.95175,-6.4237 -9.59375,-10.2207 -7.617,9.505 -14.476453,19.67745 -20.439453,30.43945 0.395,1.636 1.55825,3.42055 3.78125,5.81055 2.656,2.853 6.804,5.80045 11.625,8.31445 -2.024,6.117 -3.759547,12.2033 -5.185547,18.2793 -7.44,-3.38 -14.24475,-7.7668 -19.59375,-13.3418 -5.94,13.804 -10.47325,28.4183 -13.40625,43.6543 1.335,2.434 3.7145,4.6642 7.3125,7.0332 5.072,3.34 12.35925,6.07525 20.28125,7.65625 -0.045,6.437 0.2505,12.823 0.8125,19.125 -11.407,-1.673 -22.405,-5.24825 -31.375,-11.15625 -0.05,-0.034 -0.10625,-0.0597 -0.15625,-0.0937 -1.31,15.59 -0.87125,30.96025 1.09375,45.90625 2.31,3.48 6.174547,5.9565 11.935547,7.9375 7.406,2.546 17.472703,3.3445 27.720703,2.3125 2,6.122 4.275547,12.13 6.810547,18 -13.97,2.098 -28.23775,1.622 -40.59375,-2.625 -0.337,-0.116 -0.665,-0.252 -1,-0.375 3.978,15.49 9.65975,30.3683 16.84375,44.4043 3.553,2.804 8.350703,4.21625 14.720703,4.65625 9.3,0.644 21.1435,-1.7288 32.4375,-6.3418 3.712,5.257 7.63,10.34 11.75,15.25 -14.57,6.715 -30.3595,10.675 -45.0625,9.75 9.952,14.602 21.63775,27.964 34.84375,39.75 4.26,1.446 9.301,1.4643 15.375,0.2793 9.6,-1.873 20.8543,-7.404 31.0293,-15 0.008,0.005 0.0252,-0.005 0.0312,0 5.154,3.978 10.47625,7.75 15.90625,11.25 -11.976,9.91 -25.6243,17.6967 -39.5293,21.2207 11.654,7.88 24.1468,14.66955 37.3418,20.18555 4.937,0.423 10.2917,-0.96025 16.3457,-3.90625 7.672,-3.735 15.7793,-10.2513 23.0293,-18.2793 17.036,6.783 34.7315,11.2193 52.5625,12.9043 l 1.78125,-18.625 c -14.268,-1.35 -28.5845,-4.7695 -42.5625,-9.9375 6.883,-11.108 11.60945,-23.1735 12.93945,-33.4375 1.178,-9.114 0.0838,-16.1565 -3.78125,-21.4375 -8.08,-1.58 -15.89,-3.94 -23.375,-7 -0.172,6.47 -1.7067,12.98675 -4.2207,19.09375 -3.745,9.103 -9.5193,17.7987 -16.5293,25.7207 -5.353,-3.288 -10.5662,-6.832 -15.6582,-10.625 6.62,-7.182 11.92325,-14.9707 14.90625,-22.2207 3.806,-9.246 4.173,-16.57855 0.625,-22.81055 -7.748,-4.957 -15.0018,-10.73575 -21.7168,-17.21875 -1.773,4.3 -4.1882,8.36975 -7.0332,12.09375 -5.476,7.165 -12.5715,13.5093 -20.5625,18.9043 -4.12,-4.72 -8.052,-9.6025 -11.75,-14.6875 7.152,-4.694 13.2967,-10.1005 17.4707,-15.5625 5.038,-6.594 7.2188,-12.40975 6.4668,-18.09375 -4.976,-6.553 -9.494,-13.582 -13.5,-21 -2.285,2.686 -4.85925,5.1402 -7.65625,7.2832 -6.758,5.175 -14.798253,9.1543 -23.406253,12.0293 -2.595,-5.69 -4.957,-11.4985 -7,-17.4375 7.427,-2.405 14.129297,-5.68155 19.029297,-9.43555 5.695996,-4.362 8.803206,-8.545 9.533206,-13.25 -3.03,-7.998 -5.50825,-16.3202 -7.40625,-24.9082 -1.878003,1.075 -3.820503,2.0235 -5.812503,2.8125 -7.45,2.947 -15.749297,4.434 -24.279297,4.75 -0.662,-6.16 -1.027203,-12.4037 -1.033203,-18.7207 6.957,-0.263 13.463453,-1.4363 18.439453,-3.4043 4.6,-1.82 7.59575,-3.8 9.34375,-6.25 -1.018,-9.72 -1.331453,-19.6895 -0.814453,-29.8125 -0.65,0.104 -1.2895,0.18 -1.9375,0.25 -6.624,0.725 -13.55625,0.14925 -20.40625,-1.34375 1.37,-5.98 3.06975,-12.0095 5.09375,-18.0625 4.87,0.933 9.53925,1.22345 13.28125,0.81445 2.614,-0.286 4.532,-0.75625 6,-1.40625 1.395003,-8.93 3.405753,-17.6452 5.968753,-26.0332 -4.182,-0.736 -8.284003,-2.092 -12.250003,-3.875 2.834,-5.457 5.927703,-10.9273 9.345703,-16.4043 2.414,0.963 4.71455,1.66571 6.68555,1.97071 1.107,0.17 2.0242,0.26429 2.7832,0.27929 1.946,-4.64 4.02125,-9.1695 6.28125,-13.5625 5.898,-11.801997 12.415,-24.250497 17,-37.937497 l 0,-0.002 z m 18.2168,60.9375 24.09375,129.71875 164.0957,0 22.90625,-124.5 -57.9375,63.5 L 261,135.8457 l -45,67.18555 -63.1875,-68.7168 -0.002,-0.002 z m 27.5625,148.40625 3.5625,19.2168 150.09375,0 3.5332,-19.2168 -157.1875,0 -0.002,0 z"
     id="path6" />
</svg>
