<?xml version="1.0" encoding="UTF-8" standalone="no"?>
<svg
   xmlns:dc="http://purl.org/dc/elements/1.1/"
   xmlns:cc="http://creativecommons.org/ns#"
   xmlns:rdf="http://www.w3.org/1999/02/22-rdf-syntax-ns#"
   xmlns:svg="http://www.w3.org/2000/svg"
   xmlns="http://www.w3.org/2000/svg"
   version="1.1"
   id="svg2"
   viewBox="0 0 512 512">
  <metadata
     id="metadata12">
    <rdf:RDF>
      <cc:Work
         rdf:about="">
        <dc:format>image/svg+xml</dc:format>
        <dc:type
           rdf:resource="http://purl.org/dc/dcmitype/StillImage" />
        <dc:title></dc:title>
      </cc:Work>
    </rdf:RDF>
  </metadata>
  <defs
     id="defs10" />
  <path
     d="m 153.03125,23.654297 -0.002,0.002 c -7.817,0.13 -15.85,1.054 -24,2.875 C 28.355297,49.03325 26.8895,199.8847 165.5625,248.5957 l -24.875,26.125 50.0332,23.5918 L 192.5,254.75 c 29.715,12.604 48.8475,25.695 60.5625,39 14.296,16.238 18.538,32.814 18.25,52.75 -0.043,2.955 -0.20875,5.9755 -0.46875,9.0625 -41.823,-7.816 -76.90825,9.98075 -93.15625,36.34375 -9.494,15.405 -12.62,34.0095 -6.5,51.1875 6.12,17.177 21.34475,32.0885 45.34375,40.9375 L 223,466.5 c -20.147,-7.43 -30.1967,-18.3955 -34.2207,-29.6875 -4.02,-11.29 -2.1433,-23.75375 4.8457,-35.09375 12.075,-19.593 39.196,-34.9157 74.75,-27.7207 -5.81,33.572 -18.2493,73.7887 -19.0293,120.8457 l 18.68555,0 c 0.84,-42.738 12.675,-80.404 18.625,-115.375 41.503,15.78 78.79525,8.48205 102.90625,-11.62695 17.17,-14.32 27.5452,-35.0553 28.5332,-57.2793 l 17.84375,30.93555 26.375,-35.5625 -40.2207,-14 c 93.154,-102.85 24.30975,-230.453003 -69.90625,-205.250003 -95.71,25.604003 -114.3663,160.711253 46.9707,213.656253 2.425,20.61 -5.8425,40.04525 -21.5625,53.15625 -18.773,15.656 -48.37145,22.47 -85.06445,8.25 -1.106,-0.43 -2.20859,-0.82671 -3.30859,-1.22071 0.438,-4.627 0.71329,-9.22929 0.77929,-13.77929 0.333,-23.017 -5.47625,-45.54675 -22.90625,-65.34375 -14.603,-16.585 -36.784,-31.23925 -69.375,-44.78125 104.097,-113.053 43.22755,-214.433753 -44.68945,-212.968753 z"
     id="path6" />
</svg>
