<?xml version="1.0" encoding="UTF-8" standalone="no"?>
<svg
   xmlns:dc="http://purl.org/dc/elements/1.1/"
   xmlns:cc="http://creativecommons.org/ns#"
   xmlns:rdf="http://www.w3.org/1999/02/22-rdf-syntax-ns#"
   xmlns:svg="http://www.w3.org/2000/svg"
   xmlns="http://www.w3.org/2000/svg"
   version="1.1"
   id="svg2"
   viewBox="0 0 512 512">
  <metadata
     id="metadata12">
    <rdf:RDF>
      <cc:Work
         rdf:about="">
        <dc:format>image/svg+xml</dc:format>
        <dc:type
           rdf:resource="http://purl.org/dc/dcmitype/StillImage" />
        <dc:title></dc:title>
      </cc:Work>
    </rdf:RDF>
  </metadata>
  <defs
     id="defs10" />
  <path
     d="m 302.34375,28.513672 c -2.386,1.354 -4.33444,3.49664 -6.27344,7.18164 -2.335,4.438001 -4.27945,10.837016 -5.93945,18.291016 -3.316,14.91 -5.50966,33.827766 -12.09766,51.259762 l -0.54101,1.42969 -0.98047,1.16992 c -53.308,63.59 -92.07163,98.35941 -119.01563,148.81641 l -2.45898,4.60547 -5.2207,0.15039 c 0,0 -10.62847,0.32294 -22.60547,2.46094 -11.978,2.137 -43.225815,3.31462 -46.132815,7.01562 -13.33,16.97 -23.480266,45.76094 -25.072266,70.46094 -1.592,24.697 3.871782,48.98636 16.675782,65.56836 0.858,1.11 29.530699,4.56878 38.220699,5.30078 8.693,0.73 16.51954,0.16211 16.51954,0.16211 l 6.08007,-0.45703 2.67774,5.48047 c 14.83,30.325 61.4565,50.59564 110.9375,66.05664 4.384,0.248 11.96156,-1.81993 20.85156,-6.29492 -19.818,-7.57 -35.37,-14.0309 -52.5,-23.0879 l -4.42187,-2.33789 -0.34766,-4.99023 c -0.896,-12.814 5.67137,-23.27286 13.60937,-30.25586 2.54,-2.237 5.24133,-4.21511 7.98633,-6.03711 -1.54,-0.685 -3.07509,-1.38169 -4.62109,-2.05469 l -4.69727,-2.04882 -0.63476,-5.08594 c -1.752,-14.04 2.56606,-27.89752 11.66406,-37.72852 1.852,-2 3.93145,-3.8093 6.18945,-5.4043 l -0.23047,-0.10156 -0.4375,-5.30859 c -1.313,-15.828 8.71993,-29.43953 20.29493,-39.01953 2.13,-1.764 4.34704,-3.44133 6.62304,-4.98633 l -0.91015,-2.14844 c -4.49,-10.608 -2.33624,-21.78445 3.00976,-29.81445 5.35,-8.03 13.35692,-13.65606 21.91992,-16.78906 l 0.23243,-0.0859 0.23632,-0.0742 c 16.656,-5.078 32.61586,-1.00575 47.75586,3.03125 15.14,4.036 29.84067,8.21888 45.13867,6.92187 9.28601,15.50201 8.09524,12.52279 10.49024,17.17579 l -8.96484,0.75976 c -19.417,1.647 -36.48079,-3.5148 -51.30079,-7.46679 -14.71,-3.92001 -26.83123,-6.45568 -37.61523,-3.26368 -5.132,1.933 -10.2102,5.71453 -12.9082,9.76953 -2.15,3.226 -3.05989,6.18 -2.33789,9.75 21.768,9.268 38.37306,19.34783 57.03906,24.79883 19.682,5.746 42.49117,7.05985 79.32617,-3.03515 5.858,-2.842 11.61467,-7.67732 15.01367,-12.94532 3.503,-5.427 4.63614,-10.646 2.86914,-16 -6.415,-19.43 -15.20134,-36.68462 -33.02734,-48.51562 -40.155,-16.703 -65.95839,-16.83194 -101.27539,-13.33594 -0.627,-5.215 -0.43752,-10.64384 0.0215,-18.08984 2.066,-15.153 8.8461,-33.84371 16.7461,-55.09571 9.792,-26.342 21.69201,-55.157574 30.41601,-78.892574 -2.042,-19.79 -7.61892,-30.870781 -15.04492,-37.300781 -7.295,-6.315 -17.55964,-9.0525 -30.93164,-9.5625 l 0,-0.002 z m -14.5293,290.699218 c -4.52,1.1 -10.95267,3.75833 -16.51367,8.36133 -6.763,5.6 -11.66958,12.98823 -13.26758,18.99023 24.578,11.48 43.08891,22.94394 74.62891,33.08594 l 66.91992,-3.79297 c 11.996,-4.2 19.78031,-8.52326 24.07031,-12.19726 4.42,-3.79 5.29318,-6.29354 5.45118,-8.76954 0.265,-4.14999 -3.83086,-11.10968 -9.88086,-18.42968 -37.514,9.835 -63.91921,8.56051 -86.03321,2.10351 -16.627,-4.855 -30.524,-12.22356 -45.375,-19.35156 z m -25.40039,49.4082 c -6.37904,0.19551 -11.28467,2.92383 -15.19726,7.15039 -4.27,4.616 -6.85285,11.32724 -7.08985,18.49024 23.313,10.374 45.07946,21.1362 74.68946,30.4082 l 56.53906,-1.0957 c 21.862,-0.903 27.78997,-9.78952 28.91797,-17.85352 0.6,-4.28 -0.49199,-8.5047 -2.70899,-11.7207 l -67.26953,3.81445 -1.57031,-0.49609 c -28.61,-9.035 -47.05663,-19.09427 -66.26563,-28.69727 l -0.043,0 -0.002,0 z m -9.95703,50.93555 -0.002,0.002 c -6.14,3.332 -12.05281,6.75413 -16.25781,10.45313 -4.005,3.523 -6.40333,6.66945 -7.23633,10.68945 17.396,8.825 33.93372,15.36311 57.38672,24.16211 l 46.50976,1.5957 c 8.015,-3.427 12.80008,-6.68937 15.08008,-9.10937 2.44,-2.59 2.63556,-3.79705 2.60156,-5.87305 -0.035,-2.12 -1.344,-5.4135 -3,-9.4375 l -35.40234,0.68555 -1.38477,-0.42773 c -22.878,-7.07 -41.15992,-14.99024 -58.29492,-22.74024 z"
     id="path6" />
</svg>
