<?xml version="1.0" encoding="UTF-8" standalone="no"?>
<svg
   xmlns:dc="http://purl.org/dc/elements/1.1/"
   xmlns:cc="http://creativecommons.org/ns#"
   xmlns:rdf="http://www.w3.org/1999/02/22-rdf-syntax-ns#"
   xmlns:svg="http://www.w3.org/2000/svg"
   xmlns="http://www.w3.org/2000/svg"
   version="1.1"
   id="svg2"
   viewBox="0 0 512 512">
  <metadata
     id="metadata12">
    <rdf:RDF>
      <cc:Work
         rdf:about="">
        <dc:format>image/svg+xml</dc:format>
        <dc:type
           rdf:resource="http://purl.org/dc/dcmitype/StillImage" />
        <dc:title></dc:title>
      </cc:Work>
    </rdf:RDF>
  </metadata>
  <defs
     id="defs10" />
  <path
     d="m 360,73 c -14.43,0 -27.78969,7.709531 -38.05469,21.394531 -10.263,13.683999 -16.94336,33.201409 -16.94336,54.941409 0,21.74 6.68036,41.25154 16.94336,54.93554 10.264,13.686 23.62469,21.39649 38.05469,21.39649 14.43,0 27.78969,-7.71149 38.05469,-21.39649 C 408.31769,190.58748 415,171.07594 415,149.33594 c 0,-21.74 -6.68231,-41.25641 -16.94531,-54.941409 C 387.78969,80.709531 374.43,73 360,73 Z m -240,96 c -10.012,0 -19.37223,5.31953 -26.740234,15.14453 C 85.891766,193.96753 81,208.15 81,224 c 0,15.85 4.891766,30.03247 12.259766,39.85547 C 100.62777,273.68047 109.988,279 120,279 c 10.012,0 19.37419,-5.31953 26.74219,-15.14453 7.368,-9.823 12.25586,-24.00647 12.25586,-39.85547 0,-15.85 -4.88786,-30.03247 -12.25586,-39.85547 C 139.37419,174.31953 130.012,169 120,169 Z m 188.80469,47.67383 c -1.625,1.26 -3.20733,2.58061 -4.73633,3.97461 -13.716,12.524 -23.81725,31.05126 -31.53125,54.19726 -14.59,43.765 -20.4035,103.3063 -30.0625,164.1543 l 235.05078,0 c -9.66,-60.848 -15.47645,-120.3903 -30.06445,-164.1543 -7.714,-23.146 -17.81135,-41.67326 -31.52735,-54.19726 -1.53,-1.396 -3.11328,-2.71561 -4.73828,-3.97461 -12.84,16.293 -30.94036,26.99414 -51.19336,26.99414 -20.253,0 -38.35531,-10.70014 -51.19531,-26.99414 l -0.002,0 z M 81.269531,277.6582 c -0.573,0.485 -1.142172,0.97828 -1.701172,1.48828 -9.883,9.024 -17.31625,22.55322 -23.03125,39.69922 -10.6,31.8 -15.0445,75.3443 -22.0625,120.1543 l 171.048831,0 c -7.017,-44.81 -11.4625,-88.3543 -22.0625,-120.1543 -5.714,-17.146 -13.14435,-30.67522 -23.02735,-39.69922 -0.56,-0.51 -1.12812,-1.00328 -1.70312,-1.48828 C 148.85247,289.3232 135.222,297 120,297 104.778,297 91.147531,289.3222 81.269531,277.6582 Z"
     id="path6" />
</svg>
