<?xml version="1.0" encoding="UTF-8" standalone="no"?>
<svg
   xmlns:dc="http://purl.org/dc/elements/1.1/"
   xmlns:cc="http://creativecommons.org/ns#"
   xmlns:rdf="http://www.w3.org/1999/02/22-rdf-syntax-ns#"
   xmlns:svg="http://www.w3.org/2000/svg"
   xmlns="http://www.w3.org/2000/svg"
   version="1.1"
   id="svg2"
   viewBox="0 0 512 512">
  <metadata
     id="metadata12">
    <rdf:RDF>
      <cc:Work
         rdf:about="">
        <dc:format>image/svg+xml</dc:format>
        <dc:type
           rdf:resource="http://purl.org/dc/dcmitype/StillImage" />
        <dc:title></dc:title>
      </cc:Work>
    </rdf:RDF>
  </metadata>
  <defs
     id="defs10" />
  <path
     d="m 282.0625,20.9375 c -18.876,0 -33.875,15.5605 -33.875,34.4375 0,18.877 15,33.875 33.875,33.875 18.875,0 33.875,-14.998 33.875,-33.875 0,-18.875 -15,-34.4375 -33.875,-34.4375 z M 129.9043,82.09375 c -18.875,0 -33.875003,15.590703 -33.875003,34.4707 0,18.876 15.000953,33.87305 33.876953,33.87305 18.875,0 33.875,-14.998 33.875,-33.875 0,-18.876 -15.001,-34.46875 -33.875,-34.46875 l -0.002,0 z m 284.28125,22.6543 0,0.002 c -18.875,0 -33.875,15.5907 -33.875,34.4707 0,18.876 15,33.87305 33.875,33.87305 18.876,0 33.875,-14.998 33.875,-33.875 0,-18.877 -15,-34.4707 -33.875,-34.4707 z m -162.25,57.56445 c -3.24,-0.003 -6.5088,0.42125 -9.7168,1.28125 -25.657,6.875 -39.1207,39.7545 -30.0957,73.4375 3.502,13.072 9.883,24.31545 17.875,32.81445 -19.225,4.532 -34.137,13.467 -40.5,24.5 l -0.40625,-0.0937 -41.59375,64.4375 -50.687503,-21.9375 c -29.376,-16.12 -61.576,23.9995 -30.625,41.6875 l 94.468753,44.0625 38.02929,-50.06445 c 21.493,38.735 15.74896,77.484 -25.12304,116.25 l 169.18945,0 c -39.82,-38.2 -42.4373,-76.424 -23.2793,-114.625 l 36.8086,48.43945 94.4707,-44.06445 c 11.635,-6.65 14.334,-16.4693 11.625,-25.2793 -8.184,5.26 -17.91475,8.34375 -28.34375,8.34375 -14.224,0 -27.1178,-5.72145 -36.5918,-14.93945 l -28,12.125 -41.59375,-64.43555 -0.0312,0 c -5.48,-9.417 -17.2262,-17.27945 -32.5332,-22.18945 11.58,-14.222 15.924,-36.89855 9.75,-59.93555 -7.896,-29.473 -30.3998,-49.79945 -53.0918,-49.81445 l -0.004,0 z M 87.810547,223.34375 c -18.875,0 -33.873047,15.5595 -33.873047,34.4375 0,18.88 14.999047,33.875 33.873047,33.875 18.876003,0 33.876953,-14.997 33.876953,-33.875 0,-18.874 -15.00095,-34.43555 -33.876953,-34.43555 l 0,-0.002 z m 346.220703,51.125 c -18.876,0 -33.87695,15.5898 -33.87695,34.4668 0,18.878 15,33.875 33.875,33.875 18.876,0 33.87695,-14.997 33.87695,-33.875 0,-18.875 -15,-34.4668 -33.875,-34.4668 z"
     id="path6" />
</svg>
