<?xml version="1.0" encoding="UTF-8" standalone="no"?>
<svg
   xmlns:dc="http://purl.org/dc/elements/1.1/"
   xmlns:cc="http://creativecommons.org/ns#"
   xmlns:rdf="http://www.w3.org/1999/02/22-rdf-syntax-ns#"
   xmlns:svg="http://www.w3.org/2000/svg"
   xmlns="http://www.w3.org/2000/svg"
   version="1.1"
   id="svg2"
   viewBox="0 0 512 512">
  <metadata
     id="metadata12">
    <rdf:RDF>
      <cc:Work
         rdf:about="">
        <dc:format>image/svg+xml</dc:format>
        <dc:type
           rdf:resource="http://purl.org/dc/dcmitype/StillImage" />
        <dc:title></dc:title>
      </cc:Work>
    </rdf:RDF>
  </metadata>
  <defs
     id="defs10" />
  <path
     d="m 150.15625,82.404297 0,0.002 c -1.843,0.092 -3.66275,0.4455 -5.34375,1.0625 L 41.09375,121.5293 c -4.483,1.645 -8.493,5.3584 -10.5,9.6914 C 28.58675,135.5507 28.356,141.018 30,145.5 l 66.720703,181.875 c 1.643,4.482 5.353547,8.5233 9.685547,10.5293 4.332,2.008 9.7993,2.2407 14.2793,0.5957 l 103.7207,-38.0625 c 4.483,-1.644 8.493,-5.3555 10.5,-9.6875 l 0.0293,-0.0625 c 1.982,-4.322 2.20045,-9.75775 0.56445,-14.21875 l -66.7207,-181.875 c -1.635,-4.46 -5.31705,-8.484 -9.62305,-10.5 l -0.0625,-0.03125 c -2.166,-1.005 -4.62275,-1.556203 -7.09375,-1.658203 -0.618,-0.025 -1.22975,-0.03 -1.84375,0 z m 39.0625,13.623047 0.002,0.002 63.8418,174.000003 c 3.41,9.3 2.9755,19.6107 -1.1875,28.5957 -4.163,8.986 -11.7333,15.965 -21.0293,19.375 l -27.4414,10.0625 60,2.78125 c 4.77,0.223 9.9114,-1.661 13.4414,-4.875 3.528,-3.217 5.8698,-8.16945 6.0918,-12.93945 l 9,-193.5 c 0.222,-4.768 -1.62875,-9.93875 -4.84375,-13.46875 -3.216,-3.53 -8.1675,-5.8688 -12.9375,-6.0918 l -84.9375,-3.941406 z m 121.00195,33.253906 -8.62695,184.625 c -0.46,9.893 -4.83625,19.23725 -12.15625,25.90625 -7.32,6.67 -17.01325,10.1475 -26.90625,9.6875 l -26.06055,-1.2207 69.375,23.0957 c 4.53,1.507 10.0113,1.1077 14.2793,-1.0293 4.27,-2.14 7.8387,-6.28345 9.3457,-10.81445 L 390.625,175.7207 c 1.507,-4.532 1.1077,-10.01225 -1.0293,-14.28125 -2.14,-4.27 -6.28345,-7.87 -10.81445,-9.375 l -68.56055,-22.7832 z m -205.0664,18.34375 0.002,0 c 24.458,24.936 68.02,17.7393 80.75,45.5293 11.875,25.927 -14.5107,46.0072 -37.9707,38.4082 l 17,30.78125 -18.7793,6.90625 -10.9375,-31.6875 c -10.39,22.624 -43.05225,23.74475 -54.15625,-0.53125 -13.53,-29.577 24.0188,-54.19925 24.0918,-89.40625 z m 301.4414,39.21875 -0.002,0.002 -59.37305,178.5918 c -3.127,9.397 -9.8657,17.19 -18.7207,21.625 l -0.0937,0.0293 c -8.834,4.396 -19.0705,5.116 -28.4375,2 l -20.375,-6.7793 43.31055,37.0293 c 3.63,3.102 8.865,4.77925 13.625,4.40625 4.76,-0.374 9.6187,-2.83875 12.7207,-6.46875 L 475.125,269.96875 c 3.102,-3.63 4.78025,-8.8357 4.40625,-13.5957 -0.372,-4.76 -2.87,-9.648 -6.5,-12.75 l -66.43555,-56.7793 z"
     id="path6" />
</svg>
