<?xml version="1.0" encoding="UTF-8" standalone="no"?>
<svg
   xmlns:dc="http://purl.org/dc/elements/1.1/"
   xmlns:cc="http://creativecommons.org/ns#"
   xmlns:rdf="http://www.w3.org/1999/02/22-rdf-syntax-ns#"
   xmlns:svg="http://www.w3.org/2000/svg"
   xmlns="http://www.w3.org/2000/svg"
   version="1.1"
   id="svg2"
   viewBox="0 0 512 512">
  <metadata
     id="metadata12">
    <rdf:RDF>
      <cc:Work
         rdf:about="">
        <dc:format>image/svg+xml</dc:format>
        <dc:type
           rdf:resource="http://purl.org/dc/dcmitype/StillImage" />
        <dc:title></dc:title>
      </cc:Work>
    </rdf:RDF>
  </metadata>
  <defs
     id="defs10" />
  <path
     d="m 196.73047,35.230469 c -8.132,0.878 -16.30063,1.935875 -24.51563,3.171875 C 192.96784,50.210344 212.045,66.795 224,96 199.104,73.488 179.76808,56.500281 148.20508,42.488281 c -8.808,1.676 -17.69025,3.562625 -26.65625,5.640625 22.69,10.745 49.02528,26.092688 75.11328,51.304688 -57.456,-25.454 -81.79052,-31.066391 -120.228516,-39.400391 -12.103,3.564 -24.403594,7.465985 -36.933594,11.708985 54.813,3.531999 103.1267,19.64575 187.3457,47.718752 l 2.01563,0.67187 1.50195,1.50391 c 5.794,5.793 15.35613,9.25451 25.20313,9.35351 -2.725,-39.429996 -18.78694,-67.801761 -58.83594,-95.759761 z m 118.53906,0 c -40.05,27.958 -56.10994,56.329765 -58.83594,95.759761 9.847,-0.1 19.41013,-3.56051 25.20313,-9.35351 l 1.50195,-1.50391 2.01367,-0.67187 C 369.37334,91.389937 417.687,75.276141 472.5,71.744141 c -12.53,-4.243 -24.82959,-8.143985 -36.93359,-11.708985 -38.438,8.334 -62.77447,13.946391 -120.23047,39.400391 26.088,-25.212 52.42423,-40.559641 75.11523,-51.306641 -8.964,-2.077 -17.84629,-3.963625 -26.65429,-5.640625 -31.563,14.014 -50.89993,31.000672 -75.79493,53.513672 11.954,-29.205 31.03021,-45.791609 51.78321,-57.599609 -8.216,-1.236 -16.38168,-2.293875 -24.51368,-3.171875 l -0.002,0 z M 25,89.287109 25,391.04492 c 44.68,0.19 106.01,16.81305 190,44.49805 l 0,-301.03906 C 128.034,105.53491 81.67,90.709109 25,89.287109 Z m 462,0 c -56.67,1.423 -103.034,16.245801 -190,45.216801 l 0,301.05078 c 84.317,-27.698 143.413,-42.50117 190,-44.20117 l 0,-302.066411 z m -254,55.195311 0,200.32422 c 15.47,3.1 30.71,3.29266 46,0.0977 l 0,-200.42188 C 271.773,147.54042 263.86,149 256,149 c -7.86,0 -15.773,-1.45958 -23,-4.51758 z m 0,218.62696 0,13.93359 c 15.296,3.488 30.512,3.28244 46,-0.10156 l 0,-13.72071 c -15.37,2.728 -30.764,2.54168 -46,-0.11132 z m 45.99805,32.18554 c -15.22539,2.85566 -30.63169,3.05788 -45.99805,0.125 l 0,48.83789 c 3.222,3.24 5.77523,5.8746 8.36523,7.5586 3.283,2.136 6.76944,3.4914 14.27344,3.1914 l 0.17969,-0.01 0.17969,0 c 11.61,0 15.954,-4.03994 23,-10.83594 l 0,-48.86719 z"
     id="path6" />
</svg>
