<?xml version="1.0" encoding="UTF-8" standalone="no"?>
<svg
   xmlns:dc="http://purl.org/dc/elements/1.1/"
   xmlns:cc="http://creativecommons.org/ns#"
   xmlns:rdf="http://www.w3.org/1999/02/22-rdf-syntax-ns#"
   xmlns:svg="http://www.w3.org/2000/svg"
   xmlns="http://www.w3.org/2000/svg"
   xmlns:sodipodi="http://sodipodi.sourceforge.net/DTD/sodipodi-0.dtd"
   xmlns:inkscape="http://www.inkscape.org/namespaces/inkscape"
   version="1.1"
   id="svg2"
   height="512"
   width="512"
   inkscape:version="0.91 r13725"
   sodipodi:docname="lett-strategi.svg">
  <sodipodi:namedview
     pagecolor="#ffffff"
     bordercolor="#666666"
     borderopacity="1"
     objecttolerance="10"
     gridtolerance="10"
     guidetolerance="10"
     inkscape:pageopacity="0"
     inkscape:pageshadow="2"
     inkscape:window-width="640"
     inkscape:window-height="480"
     id="namedview6"
     showgrid="false"
     inkscape:zoom="0.59597778"
     inkscape:cx="256"
     inkscape:cy="256"
     inkscape:window-x="65"
     inkscape:window-y="34"
     inkscape:window-maximized="0"
     inkscape:current-layer="svg2" />
  <metadata
     id="metadata15">
    <rdf:RDF>
      <cc:Work
         rdf:about="">
        <dc:format>image/svg+xml</dc:format>
        <dc:type
           rdf:resource="http://purl.org/dc/dcmitype/StillImage" />
        <dc:title></dc:title>
      </cc:Work>
    </rdf:RDF>
  </metadata>
  <defs
     id="defs13" />
  <path
     d="m 435.99414,32.189453 c -7.94,0 -15.64605,1.078328 -23.12305,3.236328 -7.398,2.158 -14.72079,5.435125 -21.96679,9.828125 l 0,21.734375 c 7.477,-5.164 14.6449,-9.095967 21.5039,-11.792969 6.937,-2.698 13.45101,-4.044921 19.54102,-4.044921 8.324,0 14.99,2.118422 20,6.357421 5.088,4.240001 7.62893,9.790391 7.6289,16.650391 0,3.775 -1.00185,7.475656 -3.00585,11.097656 -1.926,3.623 -5.08552,7.476547 -9.47852,11.560547 l -10.4043,10.291014 c -6.937,6.628 -11.48653,12.44703 -13.64453,17.45703 -2.158,5.01 -3.23437,11.40741 -3.23437,19.19141 l 0,17.80664 22.08007,0 0,-14.2207 c 0,-4.01 0.11471,-7.17047 0.34571,-9.48047 0.232,-2.314 0.57906,-4.27749 1.03906,-5.89649 0.618,-1.926 1.65805,-3.88953 3.12305,-5.89453 1.54,-2.08 4.12309,-4.93364 7.74609,-8.55664 l 10.17383,-9.94336 c 6.935,-6.62999 11.79141,-12.561742 14.56641,-17.802732 2.775,-5.318 4.16209,-10.907625 4.16211,-16.765625 0,-12.255 -4.31722,-22.120703 -12.94922,-29.595703 -8.556,-7.476 -19.92543,-11.212891 -34.10743,-11.212891 l 0.004,-0.0039 z m -253.75976,6.365235 c -80.60103,-10e-4 -147.894536,82.281432 -147.894536,186.148432 0,47.60001 14.14189,90.66052 37.21289,123.35352 5.01,-2.917 10.869532,-4.50086 17.019532,-4.00586 9.196,0.74 18.271084,5.86404 26.246094,14.83203 18.47,20.77 35.30052,33.96019 59.47852,49.11719 62.787,-35.66 93.12367,-76.71423 139.26367,-117.36523 2.854,-2.516 5.80034,-4.55679 8.77734,-6.17579 5.04,-18.706 7.7832,-38.79085 7.7832,-59.75586 0,-103.86597 -67.29261,-186.146479 -147.89062,-186.146479 l 0.004,-0.002 z m -80.88672,100.441402 0.002,0 c 15.17701,0.09 30.25542,8.08968 43.60742,23.76368 l -13.69922,11.67382 c -11.907,-13.977 -21.85073,-18.01676 -31.802732,-17.38476 -9.952,0.633 -21.424172,6.87987 -33.701172,18.17187 L 53.568359,161.97266 c 13.87,-12.76 28.546188,-21.85868 44.742188,-22.88868 a 43.78,43.78 0 0 1 3.037113,-0.0879 z m 151.96289,0 a 43.78,43.78 0 0 1 3.03515,0.0879 c 16.196,1.03 30.87414,10.13063 44.74414,22.89063 L 288.9043,175.2207 c -12.278,-11.293 -23.74916,-17.53987 -33.70118,-18.17187 -9.953,-0.632 -19.89478,3.40776 -31.80078,17.38476 l -13.70117,-11.67382 c 13.352,-15.674 28.43042,-23.67172 43.60742,-23.76172 l 0.002,-0.002 z m 165.80273,39.56055 0,29.36524 23.46875,0 0,-29.36524 -23.46875,0 z m -315.32617,7.87305 c 12.64601,0 24.26019,3.75333 33.11719,10.36133 8.857,6.61 15.10547,16.5701 15.10547,27.9121 0,11.34201 -6.24947,21.30211 -15.10547,27.91211 -8.856,6.61 -20.47018,10.35938 -33.11719,10.35938 -12.646002,0 -24.260188,-3.74938 -33.117188,-10.35938 -8.856,-6.61 -15.105469,-16.57011 -15.105469,-27.91211 0,-11.342 6.250469,-21.30015 15.105469,-27.91015 8.857,-6.61 20.470186,-10.36328 33.117188,-10.36328 z m 156.89062,0 0.004,0 c 12.64547,7.8e-4 24.25819,3.75401 33.11328,10.36133 8.857,6.61 15.10547,16.5701 15.10547,27.9121 0,11.34201 -6.24847,21.30211 -15.10547,27.91211 -8.856,6.61 -20.46823,10.35938 -33.11523,10.35938 -12.646,0 -24.26019,-3.74938 -33.11719,-10.35938 -8.856,-6.61 -15.10547,-16.57011 -15.10547,-27.91211 0,-11.342 6.24947,-21.30015 15.10547,-27.91015 8.85608,-6.60932 20.47075,-10.3625 33.11523,-10.36328 z m -160.0664,18.11914 a 19.61,19.515 0 0 0 -0.002,0.002 c 0.001,-9e-5 0.003,1e-4 0.004,0 l -0.002,-0.002 z m -0.004,0.002 c -7.70456,0.56789 -14.470072,3.15495 -19.171873,6.66406 -5.34,3.986 -7.869141,8.66328 -7.869141,13.48828 0,4.82401 2.529141,9.50033 7.869141,13.48633 5.34,3.985 13.334602,6.78516 22.349613,6.78516 9.017,0 17.01351,-2.79916 22.35351,-6.78516 5.338,-3.985 7.8711,-8.66231 7.8711,-13.48633 0,-0.09 -0.01,-0.17662 -0.0117,-0.26562 a 19.61,19.515 0 0 1 -15.50586,7.58398 19.61,19.515 0 0 1 -19.609378,-19.51757 19.61,19.515 0 0 1 1.724608,-7.95313 z m 156.69336,0.0137 c -7.623,0.596 -14.31061,3.17044 -18.97461,6.64844 -5.34,3.986 -7.86914,8.66328 -7.86914,13.48828 0,4.824 2.52914,9.50033 7.86914,13.48633 5.34,3.985 13.33752,6.78516 22.35352,6.78516 9.016,0 17.01161,-2.79916 22.34961,-6.78516 5.34,-3.985 7.87304,-8.66233 7.87304,-13.48633 0,-0.23 -0.01,-0.46145 -0.0195,-0.68945 a 19.61,19.515 0 0 1 -15.49414,7.5664 19.61,19.515 0 0 1 -19.60937,-19.51367 19.61,19.515 0 0 1 1.52343,-7.5 l -0.002,0 z m 82.13086,92.33594 a 11.32,11.32 0 0 0 -0.1875,0.0117 c -3.626,0.24 -8.0992,2.21661 -13.7832,7.22461 -41.548,36.606 -72.15716,76.50744 -129.53516,112.02344 l -39.91016,26.48242 -9.95312,-14.9961 12.45508,-8.26367 c -22.1,-14.34699 -39.17849,-28.33597 -57.14649,-48.54297 -5.796987,-6.518 -10.676277,-8.56261 -14.238278,-8.84961 -3.56,-0.286 -6.563296,0.94622 -9.529296,3.94922 -5.88,5.95 -9.497219,19.25607 -4.199219,32.28907 12.462,22.93 36.146113,44.14912 54.037113,71.20312 l 1.95312,2.95117 -0.58203,3.49024 a 521.26,521.26 0 0 0 -1.74023,11.05859 l 211.45312,0 c 0.103,-1.217 0.18036,-2.45414 0.19336,-3.74414 -0.11,-4.19 -3.22177,-10.06845 -8.25977,-14.56445 -5.066,-4.518 -11.73839,-7.12425 -15.40039,-7.03125 l -12.4375,0.3164 3.58789,-11.91015 c 1.944,-6.454 0.005,-14.63117 -4.61328,-18.82617 -4.62,-4.195 -12.1995,-6.69377 -27.3125,0.99023 l -10.74414,-14.07227 c 28.086,-30.964 65.3673,-68.31975 87.6543,-102.59375 3.04,-4.676 1.37172,-11.55815 -3.23828,-15.41015 -2.017,-1.685 -4.39667,-3.03655 -7.38867,-3.18555 l -0.002,0 a 11.32,11.32 0 0 0 -1.13281,0 z m -121.57422,36.64063 7.19727,16.49804 c -28.058,12.24 -57.48078,12.93585 -85.80078,-0.0723 l 7.51367,-16.35547 c 23.976,11.013 46.84984,10.50366 71.08984,-0.0703 z"
     style="opacity:1;fill:#000000;fill-opacity:1"
     id="svg_2" />
</svg>
