<?xml version="1.0" encoding="UTF-8" standalone="no"?>
<svg
   xmlns:dc="http://purl.org/dc/elements/1.1/"
   xmlns:cc="http://creativecommons.org/ns#"
   xmlns:rdf="http://www.w3.org/1999/02/22-rdf-syntax-ns#"
   xmlns:svg="http://www.w3.org/2000/svg"
   xmlns="http://www.w3.org/2000/svg"
   version="1.1"
   id="svg2"
   viewBox="0 0 512 512">
  <metadata
     id="metadata12">
    <rdf:RDF>
      <cc:Work
         rdf:about="">
        <dc:format>image/svg+xml</dc:format>
        <dc:type
           rdf:resource="http://purl.org/dc/dcmitype/StillImage" />
        <dc:title></dc:title>
      </cc:Work>
    </rdf:RDF>
  </metadata>
  <defs
     id="defs10" />
  <path
     d="M 413.2793,123.0625 C 366.7863,123.3165 306.0807,143 255.8457,143 c -56.868,0 -124.174,-23.70425 -170.999997,-19.15625 -23.414,2.274 -40.64325,10.1605 -52.28125,30.9375 -11.64,20.78 -17.22875,56.33645 -10.96875,113.18945 8.578,77.917 73.22525,118.97425 128.656247,99.40625 11.513,-4.064 30.972,-25.256 49,-46.125 9.014,-10.434 17.9923,-20.6877 27.0293,-28.7207 9.04,-8.03 18.23045,-14.625 29.56445,-14.625 11.335,0 20.4923,6.594 29.5293,14.625 9.04,8.033 18.01725,18.2867 27.03125,28.7207 18.028,20.87 37.487,42.06 49,46.125 55.45,19.574 118.93145,-21.6715 128.68945,-99.5625 7.137,-56.986 1.75155,-92.52925 -9.93945,-113.28125 -11.69,-20.754 -29.34475,-28.66425 -53.21875,-30.90625 -2.983,-0.28 -6.04955,-0.45929 -9.18555,-0.52929 -1.47,-0.035 -2.9707,-0.0412 -4.4707,-0.0332 l -0.002,-0.002 z m -278.21485,58.6582 c 22.378,-0.2 44.746,10.5553 67.125,30.7793 -43.4,54.67 -108.487497,37.044 -130.187497,0 21.022,-20.738 42.039497,-30.5933 63.062497,-30.7793 z m 234.625,0 c 0.7,-0.016 1.3928,-0.007 2.0918,0 21.023,0.186 42.0737,10.0413 63.0957,30.7793 -21.7,37.044 -86.8207,54.67 -130.2207,0 21.68,-19.592 43.3542,-30.3113 65.0332,-30.7793 z"
     id="path6" />
</svg>
