<?xml version="1.0" encoding="UTF-8" standalone="no"?>
<svg
   xmlns:dc="http://purl.org/dc/elements/1.1/"
   xmlns:cc="http://creativecommons.org/ns#"
   xmlns:rdf="http://www.w3.org/1999/02/22-rdf-syntax-ns#"
   xmlns:svg="http://www.w3.org/2000/svg"
   xmlns="http://www.w3.org/2000/svg"
   version="1.1"
   id="svg2"
   viewBox="0 0 512 512">
  <metadata
     id="metadata12">
    <rdf:RDF>
      <cc:Work
         rdf:about="">
        <dc:format>image/svg+xml</dc:format>
        <dc:type
           rdf:resource="http://purl.org/dc/dcmitype/StillImage" />
        <dc:title></dc:title>
      </cc:Work>
    </rdf:RDF>
  </metadata>
  <defs
     id="defs10" />
  <path
     d="m 241.0625,54.40625 c -2.31,0.008 -4.60925,0.03175 -6.90625,0.09375 -1.805,0.05 -3.61025,0.1055 -5.40625,0.1875 -8.814,1.567 -12.88375,5.42675 -15.09375,9.84375 -2.435,4.87 -2.34,11.423 0.375,17.25 2.717,5.83 7.69925,10.595 14.65625,12.375 6.958,1.78 16.536,0.861453 29.125,-7.185547 l 10.06445,15.749997 c -15.818,10.11 -31.12545,12.7763 -43.81445,9.5293 -12.688,-3.247 -22.1018,-12.1225 -26.9668,-22.5625 -4.584,-9.836 -5.42725,-21.377 -1.03125,-31.625 -42.917,6.94 -81.776,23.3985 -111.624997,46.5625 -9.81,10.688 -10.770703,23.10975 -6.470703,31.59375 4.83,9.526 16.210703,16.4793 38.9707,9.2793 l 5.65625,17.81445 c -28.579997,9.04 -52.138247,-0.588 -61.281247,-18.625 -2.23,-4.397 -3.591953,-9.15745 -4.126953,-14.06445 -4.814,5.712 -9.16,11.6597 -13,17.8457 l 0.126953,0.0586 c -8.614,19.616 -8.810953,33.20421 -5.376953,42.03321 3.436,8.83 10.635703,14.43925 21.720703,17.53125 22.168,6.18 58.065747,-1.27725 83.343747,-20.15625 10.82,-8.08 21.07575,-27.677 21.96875,-42.875 0.445,-7.6 -1.16375,-13.6035 -4.34375,-17.4375 -3.18,-3.834 -8.27345,-6.70275 -18.81445,-6.59375 l -0.18555,-18.68555 c 14.487,-0.15 26.25,4.75375 33.375,13.34375 7.124,8.59 9.26,19.6508 8.625,30.4668 -1.27,21.633 -12.59645,44.172 -29.43945,56.75 -29.876,22.314 -69.335297,31.60745 -99.529297,23.18945 -13.988,-3.9 -26.37,-12.38725 -32.75,-25.53125 -9.546,45.446 4.32375,87.661 30.71875,116.875 3.45,3.82 7.12075,7.4293 10.96875,10.7793 -2.754,-7.887 -4.01475,-16.10075 -3.71875,-24.09375 0.53,-14.325 6.08075,-28.3453 17.21875,-38.0293 9.134,-7.946 21.75275,-12.53 36.843747,-12.5 1.006,0 2.0345,0.0186 3.0625,0.0606 2.35,0.1 4.76175,0.303 7.21875,0.625 l -2.43945,18.5332 c -15.588,-2.048 -25.704547,1.522 -32.435547,7.375 -6.73,5.854 -10.444453,14.614 -10.814453,24.625 -0.74,20.024 12.071406,43.4055 39.69141,50.1875 l -0.0332,0.1875 c 27.192,5.19 57.536,0.37325 88,-18.21875 0.018,-0.012 0.0435,-0.0183 0.0625,-0.0312 6.34,-4.45 9.7545,-8.8075 11.4375,-12.5625 1.985,-4.432 1.94425,-8.2915 0.53125,-12.4375 -2.824,-8.29 -12.94075,-16.8125 -22.21875,-19.1875 -15.002,-3.84 -24.532,1.4367 -29,7.7207 -4.468,6.28 -4.73975,12.4486 2.15625,17.8086 l -11.4707,14.75 c -14.187,-11.033 -15.0913,-30.4863 -5.9043,-43.4043 6.892,-9.688 18.98546,-16.326 33.56446,-16.75 0.607,-0.018 1.22775,-0.0353 1.84375,-0.0293 4.306,0.03 8.7905,0.6206 13.4375,1.8086 15.505,3.97 29.83929,15.277 35.27929,31.25 1.416,4.155 2.089,8.69045 1.875,13.31445 16.71,-8.538 34.33321,-16.12045 52.28321,-21.81445 30.156,-13.78 43.22875,-37.9373 42.71875,-58.2793 -0.515,-20.493 -13.186,-37.74095 -42.375,-40.62695 l 1.84375,-18.59375 c 36.666,3.626 58.4615,29.848 59.1875,58.75 0.422,16.84 -5.7535,34.36425 -18.1875,49.28125 16.072,-1.8 32.04329,-1.49505 47.52929,1.62695 -3.152,-6.472 -4.67979,-13.47945 -4.46679,-20.43945 0.677,-22.036 19.42,-42.5913 48.875,-42.9043 1.963,-0.022 3.97525,0.0518 6.03125,0.2168 l -1.5,18.625 c -24.927,-1.998 -34.30075,11.08625 -34.71875,24.65625 -0.412,13.42 8.5457,28.44154 34.2207,30.43554 28.3,0.25 48.5873,-15.09825 58.5293,-37.90625 13.31,-30.536 6.99725,-76.3165 -34.84375,-118.1875 -0.792,-0.793 -1.578,-1.593 -2.375,-2.375 -0.444,3.792 -1.4238,7.44275 -2.8418,10.84375 -7.25,17.39 -24.233,29.12921 -41.875,32.40821 -24.335,4.522 -44.29,-5.34725 -53.5,-20.40625 -9.21,-15.057 -6.7927,-36.35055 9.7793,-47.56055 l 10.4707,15.5 c -8.913,6.028 -9.2795,14.19055 -4.3125,22.31055 4.967,8.122 16.1683,15.15645 34.1543,11.81445 11.306,-2.102 23.89725,-11.33 28.03125,-21.25 2.07,-4.96 2.4702,-9.8627 0.4082,-15.4707 -1.675,-4.555 -5.1877,-9.764 -11.7207,-15.25 l -0.1875,-0.1543 c -27.316,-20.587 -56.338,-35.394203 -85.75,-45.158203 0.018,0.032 0.0464,0.06075 0.0644,0.09375 6.684,12.22 7.1795,26.08175 3.0625,38.343753 -8.233,24.525 -34.0712,43.84729 -66.0332,42.77929 -6.948,-0.23 -13.55955,3.12121 -19.18555,9.65821 -5.627,6.537 -9.7345,16.1125 -10.6875,26.3125 -1.905,20.4 6.92275,42.886 41.34375,54 L 277,258.2793 c -41.083,-13.264 -56.8307,-45.546 -54.2207,-73.5 1.307,-13.975 6.7072,-26.9613 15.1582,-36.7793 8.452,-9.818 20.47375,-16.60325 33.96875,-16.15625 24.04,0.802 42.3235,-14.0835 47.6875,-30.0625 2.682,-7.988 2.335,-15.936297 -1.75,-23.404297 -3.968,-7.252 -11.83025,-14.42325 -25.90625,-19.65625 -17.114,-2.967 -34.16,-4.367453 -50.875,-4.314453 z m 101.2168,251.9375 c -41.915,3.41 -87.3653,23.4005 -125.2793,46.5625 -55.98,34.198 -114.8895,26.7337 -156.6875,-4.2793 16.444,58.844 74.712,70.7873 135.5,55.9043 6.083,-2.285 12.05925,-6.5373 17.15625,-12.0293 7.057,-7.607 12.1693,-17.47 13.7793,-25.625 l 18.3457,3.625 c -2.445,12.383 -9.07825,24.66475 -18.40625,34.71875 -8.95,9.645 -20.60975,17.351 -34.09375,19.375 -6.766,15.07 -12.3357,29.68025 -14.5957,39.90625 -3.55,16.06 14.20625,22.2243 22.15625,6.0293 19.022,-38.743 45.87025,-73.2298 79.40625,-102.9668 26.064,-17.153 48.4067,-38.3037 62.7207,-61.2207 l -0.002,0 z"
     id="path6" />
</svg>
