<?xml version="1.0" encoding="UTF-8" standalone="no"?>
<svg
   xmlns:dc="http://purl.org/dc/elements/1.1/"
   xmlns:cc="http://creativecommons.org/ns#"
   xmlns:rdf="http://www.w3.org/1999/02/22-rdf-syntax-ns#"
   xmlns:svg="http://www.w3.org/2000/svg"
   xmlns="http://www.w3.org/2000/svg"
   version="1.1"
   id="svg2"
   height="512"
   width="512">
  <metadata
     id="metadata15">
    <rdf:RDF>
      <cc:Work
         rdf:about="">
        <dc:format>image/svg+xml</dc:format>
        <dc:type
           rdf:resource="http://purl.org/dc/dcmitype/StillImage" />
        <dc:title></dc:title>
      </cc:Work>
    </rdf:RDF>
  </metadata>
  <defs
     id="defs13" />
  <rect
     stroke="none"
     fill="none"
     y="0"
     x="0"
     height="100%"
     width="100%"
     id="backgroundrect" />
  <path
     d="M 138.79883,34.224609 28.730469,113.15039 124.50781,142.24609 235.8125,55.15625 138.79883,34.226562 l 0,-0.002 z m 112.98633,31.078125 -0.002,0.0039 -118.04687,89.960939 51.07031,131.10156 8.53516,-7.45508 4.22851,-15.70898 a 18.338,13.102 76.863 0 1 -9.08008,-20.44922 18.338,13.102 76.863 0 1 10.99805,-13.72656 18.338,13.102 76.863 0 1 3.61914,0.52929 18.338,13.102 76.863 0 1 3.11328,1.54493 l 7.93946,-29.48047 a 9,9 0 0 1 0.35351,-1.04102 9,9 0 0 1 0.0586,-0.12695 9,9 0 0 1 0.32031,-0.68555 9,9 0 0 1 0.0898,-0.15234 9,9 0 0 1 0.36914,-0.625 9,9 0 0 1 0.53516,-0.72266 9,9 0 0 1 0.0644,-0.0742 9,9 0 0 1 0.54102,-0.59375 9,9 0 0 1 0.65039,-0.59375 9,9 0 0 1 0.004,-0.002 9,9 0 0 1 0.45899,-0.3418 9,9 0 0 1 0.26562,-0.19726 9,9 0 0 1 0.50196,-0.30078 9,9 0 0 1 0.27148,-0.15625 9,9 0 0 1 0.43945,-0.20899 9,9 0 0 1 0.38086,-0.17773 9,9 0 0 1 0.43555,-0.15039 9,9 0 0 1 0.41016,-0.14454 9,9 0 0 1 0.40429,-0.0996 9,9 0 0 1 0.47071,-0.11329 9,9 0 0 1 0.50976,-0.0703 9,9 0 0 1 0.36914,-0.0508 9,9 0 0 1 0.01,0 9,9 0 0 1 0.0117,-0.002 l 33.62304,-2.87305 a 18.338,13.102 76.863 0 1 10.32618,-9.77734 18.338,13.102 76.863 0 1 3.62109,0.52929 18.338,13.102 76.863 0 1 8.52734,7.32813 l 13.04297,-1.11328 -39.4414,-123.783206 z m -114.53711,7.609375 0.002,0 a 9.8,19.77 77.916 0 1 12.79883,8.734375 9.8,19.77 77.916 0 1 -21.93945,11.998047 9.8,19.77 77.916 0 1 -16.57032,-8.601562 9.8,19.77 77.916 0 1 21.93946,-12 9.8,19.77 77.916 0 1 3.76953,-0.13086 z m 100.22851,23.517579 a 18.338,13.102 76.863 0 1 0.002,0 18.338,13.102 76.863 0 1 0.002,0 18.338,13.102 76.863 0 1 3.61914,0.529296 18.338,13.102 76.863 0 1 12.11328,21.941406 18.338,13.102 76.863 0 1 -14.61719,13.19531 18.338,13.102 76.863 0 1 -12.11523,-21.93945 18.338,13.102 76.863 0 1 10.99609,-13.726562 z M 24.220703,130.5918 71.212891,244.7168 165.44727,285.09766 119.46094,159.52734 24.220703,130.5918 Z m 147.884767,17.42968 0,0.002 a 18.338,13.102 76.863 0 1 3.62305,0.52734 18.338,13.102 76.863 0 1 12.10937,21.93945 18.338,13.102 76.863 0 1 -14.61523,13.19727 18.338,13.102 76.863 0 1 -12.11328,-21.93945 18.338,13.102 76.863 0 1 10.99609,-13.72657 z m -75.123048,13.01758 0.002,0 a 19.454,9.134 59.254 0 1 16.953125,15.07813 19.454,9.134 59.254 0 1 -0.42383,19.48437 19.454,9.134 59.254 0 1 -17.914061,-14.93945 19.454,9.134 59.254 0 1 0.423829,-19.47852 19.454,9.134 59.254 0 1 0.958984,-0.14453 z m 263.394528,40.20703 0,0.002 -112.10351,9.57812 113.76172,79.92578 113.59961,-16.95703 -115.25782,-72.54883 z M 70.820312,210.9043 a 19.454,9.134 59.254 0 1 16.957032,15.07812 19.454,9.134 59.254 0 1 -0.425782,19.48438 19.454,9.134 59.254 0 1 -17.912109,-14.9375 19.454,9.134 59.254 0 1 0.423828,-19.48242 19.454,9.134 59.254 0 1 0.960938,-0.14063 l -0.0039,-0.002 z m 157.376958,7.81445 -41.53711,154.1875 115.61523,99.45313 47.14844,-168.46876 -121.22656,-85.17187 z m 126.98828,11.16602 a 21.76,8.898 15.267 0 1 19.69336,4.7832 21.76,8.898 15.267 0 1 7.60547,14.24414 21.76,8.898 15.267 0 1 -28.88477,-3.18164 21.76,8.898 15.267 0 1 -7.61133,-14.24414 21.76,8.898 15.267 0 1 9.19531,-1.59961 l 0.002,-0.002 z M 487.7793,290.18359 366.90039,308.22656 320.07617,475.54102 436.37305,443.77148 487.7793,290.18359 Z m -181.80664,10.79883 a 25.834,15.573 84.277 0 1 4.23828,0.94336 25.834,15.573 84.277 0 1 12.87109,31.7207 25.834,15.573 84.277 0 1 -18.10351,17.89258 25.834,15.573 84.277 0 1 -12.875,-31.7207 25.834,15.573 84.277 0 1 13.86914,-18.83594 z m 154.08593,11.63672 a 13.237,21.96 28.62 0 1 7.67188,4.12891 13.237,21.96 28.62 0 1 -6.17578,28.43554 13.237,21.96 28.62 0 1 -21.28711,3.87891 13.237,21.96 28.62 0 1 6.17578,-28.43555 13.237,21.96 28.62 0 1 13.61523,-8.00781 z m -68.69726,10.66406 0.002,0 a 13.237,21.96 28.62 0 1 7.66992,4.12891 13.237,21.96 28.62 0 1 -6.17578,28.43555 13.237,21.96 28.62 0 1 -21.28711,3.87695 13.237,21.96 28.62 0 1 6.17774,-28.43359 13.237,21.96 28.62 0 1 13.61328,-8.00782 z m -173.9961,13.30274 0,0.002 a 25.834,15.573 84.277 0 1 4.24024,0.94531 25.834,15.573 84.277 0 1 12.87305,31.71875 25.834,15.573 84.277 0 1 -18.10743,17.89453 25.834,15.573 84.277 0 1 -12.87304,-31.7207 25.834,15.573 84.277 0 1 13.86718,-18.83984 z m 212.2793,60.86914 0,0.002 a 13.237,21.96 28.62 0 1 7.66992,4.13086 13.237,21.96 28.62 0 1 -6.17383,28.43359 13.237,21.96 28.62 0 1 -21.2871,3.87696 13.237,21.96 28.62 0 1 6.17382,-28.43555 13.237,21.96 28.62 0 1 13.61719,-8.00781 z m -70.33203,19.49023 a 13.237,21.96 28.62 0 1 7.66992,4.13281 13.237,21.96 28.62 0 1 -6.17383,28.4336 13.237,21.96 28.62 0 1 -21.28711,3.87305 13.237,21.96 28.62 0 1 6.17579,-28.4336 13.237,21.96 28.62 0 1 13.61523,-8.00586 z"
     style="opacity:1;fill:#242424;fill-opacity:1"
     id="svg_2" />
</svg>
